<?xml version="1.0" standalone="no"?>
<!DOCTYPE svg PUBLIC "-//W3C//DTD SVG 20010904//EN"
 "http://www.w3.org/TR/2001/REC-SVG-20010904/DTD/svg10.dtd">
<svg version="1.0" xmlns="http://www.w3.org/2000/svg"
 width="1170.000000pt" height="669.000000pt" viewBox="0 0 1170.000000 669.000000"
 preserveAspectRatio="xMidYMid meet">

<g transform="translate(0.000000,669.000000) scale(0.100000,-0.100000)"
fill="#000000" stroke="none">
<path d="M0 3345 l0 -3345 5850 0 5850 0 0 3345 0 3345 -5850 0 -5850 0 0
-3345z m9454 2450 c83 -22 189 -80 232 -127 51 -57 92 -150 104 -238 7 -48 10
-389 10 -970 -1 -855 0 -895 17 -901 10 -4 70 -8 133 -8 63 -1 121 -5 128 -9
9 -6 12 -34 10 -103 l-3 -94 -310 -5 -310 -5 -3 -49 c-2 -27 -1 -60 3 -73 l5
-23 273 -2 272 -3 3 -101 3 -101 -30 -6 c-17 -4 -130 -7 -252 -7 -122 -1 -232
-5 -245 -10 -22 -9 -24 -15 -24 -88 l0 -79 107 -6 c58 -4 195 -7 304 -7 231 0
212 11 207 -125 l-3 -80 -190 -7 c-439 -17 -700 -22 -706 -15 -4 5 -4 120 -1
255 4 136 9 360 12 497 l5 250 79 5 78 5 -1 393 c-1 216 -5 400 -8 408 -7 19
-16 18 -44 -9 -26 -23 -50 -97 -149 -456 -74 -265 -95 -323 -127 -348 l-28
-23 3 -484 c2 -266 -1 -486 -5 -489 -4 -3 -65 -3 -135 0 l-128 6 -2 386 -3
386 -225 0 -225 0 4 -370 c2 -204 1 -380 -3 -393 -7 -21 -12 -22 -132 -22
-123 0 -124 0 -124 -23 0 -25 29 -58 58 -66 9 -2 55 -6 100 -7 46 -1 87 -5 90
-9 10 -9 20 -1696 11 -1721 -5 -14 -19 -23 -41 -26 -40 -6 -415 5 -421 12 -3
3 -6 415 -8 915 -3 736 -1 916 9 940 18 40 86 105 114 108 18 1 25 -5 33 -30
5 -18 14 -33 21 -33 8 0 13 112 18 406 l8 407 -24 31 -23 31 -5 623 c-3 396
-9 622 -15 623 -8 0 -58 -163 -125 -406 -133 -492 -204 -719 -231 -746 -11
-11 -17 -24 -14 -30 4 -5 38 -30 76 -55 116 -77 192 -182 193 -268 l1 -41
-115 -3 c-63 -1 -124 -1 -135 2 -12 3 -28 22 -39 45 -22 51 -83 104 -138 121
-72 21 -216 16 -277 -10 -105 -46 -171 -165 -158 -287 15 -138 65 -222 155
-260 52 -22 200 -45 236 -37 68 14 109 51 87 78 -12 15 -24 186 -16 219 9 33
28 34 165 11 52 -9 134 -15 181 -15 54 1 98 -4 120 -13 l34 -14 -38 -7 c-20
-4 -37 -11 -37 -16 0 -5 -39 -9 -87 -9 -49 0 -95 -5 -103 -10 -10 -7 16 -10
82 -10 53 0 99 -4 102 -8 8 -14 -15 -105 -44 -167 -44 -98 -162 -184 -319
-232 -76 -24 -103 -27 -236 -27 -155 -1 -182 4 -307 58 -53 23 -175 135 -214
197 -35 55 -41 51 -23 -15 12 -44 8 -49 -52 -66 -30 -8 -38 -16 -43 -41 -8
-40 -8 -682 0 -703 5 -13 22 -16 83 -16 138 0 184 48 202 212 6 51 8 106 5
122 -4 17 -3 76 0 132 6 87 10 103 25 107 10 3 23 -1 29 -8 7 -8 35 -21 63
-30 29 -8 68 -21 87 -27 19 -6 79 -14 134 -17 l100 -6 14 -45 c10 -33 12 -82
8 -185 -10 -280 -82 -444 -239 -549 -90 -59 -170 -78 -350 -84 -150 -4 -157
-5 -162 -26 -3 -11 -6 -204 -7 -428 -2 -223 -7 -410 -11 -415 -11 -11 -443
-11 -454 0 -10 11 -11 1660 0 1710 6 29 27 58 81 113 80 81 132 163 238 374
37 74 76 140 85 147 23 16 91 24 98 12 18 -29 36 12 50 116 23 167 176 325
371 380 79 23 85 29 71 68 -7 22 -10 348 -8 1087 2 957 4 1056 19 1068 18 13
387 18 396 4 2 -4 7 -295 11 -647 4 -352 11 -646 15 -654 9 -17 31 48 105 319
31 113 73 264 95 335 21 72 59 209 85 305 71 269 86 314 107 333 18 15 44 17
209 17 185 0 189 0 203 -22 12 -20 15 -179 17 -1083 1 -583 0 -1073 -2 -1090
l-4 -30 104 -3 c57 -1 108 1 114 7 5 5 10 31 12 57 3 42 49 242 98 424 8 30
25 91 36 135 12 44 35 121 51 172 17 50 30 100 29 110 0 10 -28 38 -62 63
-150 111 -225 327 -207 600 13 207 83 373 213 507 85 87 192 145 313 168 95
18 261 13 348 -10z m-4358 1 c247 -66 410 -293 478 -669 20 -106 46 -419 46
-539 0 -142 -27 -434 -49 -544 -60 -292 -185 -496 -355 -575 -86 -40 -115 -37
-133 16 -15 45 -37 70 -70 80 -22 6 -23 4 -25 -72 -2 -43 -3 -271 -3 -508 l0
-430 -120 4 c-66 2 -123 5 -127 8 -5 2 -8 148 -8 324 0 259 -3 319 -13 319 -8
0 -36 -31 -63 -70 -69 -98 -176 -253 -231 -335 -117 -176 -142 -211 -163 -230
-20 -18 -34 -20 -163 -18 -85 1 -145 7 -151 13 -8 8 -11 142 -12 428 0 447 0
440 -13 461 -7 11 -13 10 -35 -4 -40 -27 -133 -14 -220 31 -39 19 -75 39 -82
45 -20 17 -217 69 -254 67 l-35 -1 35 -4 c19 -2 49 -11 67 -19 17 -8 35 -13
40 -12 10 3 108 -48 145 -75 36 -27 114 -128 144 -187 38 -77 58 -167 58 -270
1 -81 -3 -105 -27 -167 -47 -119 -100 -182 -210 -250 -97 -59 -160 -73 -334
-73 -197 0 -302 22 -398 85 -127 83 -191 185 -216 345 -9 58 -8 89 6 167 19
113 30 142 85 222 89 131 274 221 456 221 31 0 64 5 75 10 17 9 18 14 7 33
-18 31 -25 2132 -7 2153 9 12 87 14 450 14 l439 0 10 -26 c6 -14 10 -90 10
-169 0 -79 -4 -155 -10 -169 l-10 -26 -197 0 c-109 0 -204 -4 -211 -8 -9 -7
-12 -67 -10 -268 l3 -259 195 -6 c107 -3 196 -6 198 -7 1 -1 1 -93 0 -204 l-3
-203 -184 -3 c-115 -1 -189 -7 -198 -13 -10 -9 -13 -72 -13 -295 0 -270 1
-284 19 -294 12 -6 96 -10 203 -10 133 0 189 -4 202 -13 14 -10 16 -26 14 -97
l-3 -84 -39 -20 c-59 -31 -56 -43 13 -48 96 -7 91 11 92 -317 0 -157 4 -295 8
-305 7 -17 11 -15 37 20 16 21 38 48 50 59 11 11 69 90 129 175 59 85 125 178
145 205 21 28 48 71 59 96 12 25 32 51 44 57 12 7 69 13 127 14 58 2 105 7
105 12 0 5 -9 10 -20 12 -58 9 -93 53 -76 98 6 15 11 52 11 81 l0 54 38 -25
c32 -22 45 -25 96 -22 52 4 63 9 86 36 31 37 55 109 70 207 16 102 24 799 12
1005 -14 230 -32 313 -82 363 -33 33 -43 37 -87 37 -108 0 -153 -83 -174 -322
-12 -139 -5 -998 9 -1146 8 -80 3 -102 -18 -77 -19 23 -28 18 -35 -17 -13 -61
-65 -157 -101 -186 -49 -40 -109 -56 -197 -50 -144 9 -239 85 -262 211 l-7 37
66 0 c63 0 66 -1 81 -30 21 -40 43 -50 112 -50 72 0 101 14 47 23 -58 10 -115
76 -144 168 -40 128 -51 229 -57 529 -9 457 28 708 137 935 90 189 199 289
364 336 76 22 259 25 332 5z m-2028 -14 c9 -7 12 -52 10 -193 l-3 -184 -162
-3 c-152 -2 -163 -4 -173 -23 -8 -14 -11 -299 -9 -957 2 -734 -1 -943 -11
-961 -11 -22 -16 -23 -96 -19 -75 4 -89 8 -136 40 -85 56 -102 65 -141 76 -48
13 -57 -2 -15 -24 81 -41 122 -118 122 -229 0 -67 -25 -128 -75 -181 l-30 -31
45 -28 c113 -72 141 -270 55 -390 -35 -48 -93 -90 -147 -105 -25 -7 -160 -8
-422 -3 l-385 8 -7 474 c-5 336 -4 479 4 488 8 10 93 13 404 13 277 0 395 3
400 11 3 6 1 15 -5 19 -7 4 -17 25 -21 46 -5 22 -10 416 -10 881 0 522 -4 851
-10 867 l-10 26 -155 0 c-89 0 -165 4 -176 10 -18 10 -19 23 -19 183 0 121 4
177 12 185 14 14 1144 17 1166 4z m3448 -7 c202 -38 343 -165 415 -372 62
-180 65 -590 4 -768 -44 -129 -131 -233 -238 -284 -90 -43 -143 -53 -312 -60
l-150 -6 -5 -418 c-4 -356 -7 -419 -20 -428 -19 -13 -136 -2 -175 17 -16 8
-39 28 -50 44 -33 51 -123 94 -108 53 27 -79 171 -340 241 -438 24 -35 36 -44
45 -36 7 5 51 92 97 193 47 101 96 206 110 233 l25 50 124 3 c69 1 131 0 139
-3 10 -3 -19 -70 -109 -247 -358 -715 -339 -682 -434 -728 -85 -41 -148 -48
-230 -25 l-65 17 0 95 0 95 38 -8 c66 -14 121 -8 148 17 13 12 24 28 24 36 0
7 -26 54 -57 103 -32 50 -67 105 -78 124 -24 40 -102 163 -224 355 -50 79 -91
150 -91 157 0 10 25 14 93 16 l92 3 -4 35 c-3 19 -4 514 -2 1100 2 973 3 1066
18 1078 26 19 635 17 739 -3z m-5145 -2235 c16 -9 19 -22 19 -85 0 -102 -5
-105 -175 -105 -89 0 -137 -4 -148 -12 -15 -12 -17 -50 -19 -388 l-3 -375
-106 -3 c-90 -2 -108 0 -120 14 -11 14 -14 84 -14 381 0 312 -2 365 -15 373
-8 5 -78 10 -155 10 -96 0 -145 4 -153 12 -7 7 -12 43 -12 90 0 63 3 79 18 87
24 14 856 15 883 1z m9084 -4 c23 -10 53 -41 97 -102 69 -97 136 -174 149
-174 5 0 43 46 84 103 41 56 91 121 111 145 l36 43 131 -3 c87 -2 132 -7 134
-14 2 -7 -71 -105 -162 -219 -92 -114 -171 -218 -177 -230 -14 -32 -11 -37
242 -350 91 -112 112 -143 105 -155 -4 -6 -61 -10 -139 -10 -154 0 -130 -14
-252 150 -75 102 -109 140 -124 140 -10 0 -50 -47 -120 -140 -30 -40 -70 -90
-89 -111 l-33 -39 -142 0 c-79 0 -146 3 -149 6 -4 4 19 37 51 74 31 36 68 81
82 99 34 46 114 144 177 220 55 65 72 103 55 124 -5 6 -65 82 -133 167 -160
199 -203 259 -194 268 7 7 98 18 178 20 26 1 63 -4 82 -12z m-4812 -458 c18
-15 33 -91 72 -363 14 -99 37 -236 51 -305 25 -128 90 -509 214 -1264 53 -325
67 -432 59 -442 -9 -11 -56 -14 -223 -14 -224 0 -251 3 -260 27 -7 16 -42 236
-56 351 -15 118 -5 112 -190 112 -87 0 -161 -4 -164 -9 -3 -4 -12 -66 -21
-137 -28 -230 -44 -307 -66 -327 -19 -15 -45 -17 -208 -17 -134 0 -192 4 -204
13 -17 12 -2 133 119 917 23 156 33 219 84 550 25 162 47 259 61 277 7 7 27
13 45 13 43 0 112 42 118 73 12 56 16 125 16 312 1 110 4 206 9 213 12 20 117
29 332 31 142 1 200 -2 212 -11z m2973 -6 c12 -11 14 -49 12 -195 l-3 -182
-75 -3 c-98 -4 -146 10 -155 45 -8 32 -4 309 5 323 16 25 193 36 216 12z m530
-229 c3 -255 8 -266 14 -38 l6 200 1 -233 c0 -129 4 -237 9 -240 37 -28 41
-82 19 -259 -40 -317 -85 -687 -85 -699 0 -11 25 -14 114 -14 63 0 117 4 121
9 3 5 -17 189 -45 408 -52 409 -57 491 -30 484 8 -2 99 -6 202 -9 l187 -5 15
-37 c17 -42 35 -139 96 -515 23 -137 48 -286 55 -330 8 -44 24 -138 35 -210
11 -71 39 -241 62 -376 22 -136 38 -254 35 -263 -6 -14 -35 -16 -235 -16 -172
0 -232 3 -240 12 -10 13 -27 113 -57 326 -9 62 -18 119 -21 127 -5 12 -32 15
-143 17 -170 2 -183 1 -191 -12 -4 -6 -15 -66 -24 -133 -28 -201 -47 -311 -58
-324 -8 -10 -64 -13 -219 -13 -114 0 -210 3 -212 7 -3 5 19 166 48 358 29 193
83 548 120 790 64 428 87 556 104 583 5 8 36 13 92 15 107 3 177 34 194 85 6
18 14 30 18 26 4 -4 7 0 7 9 0 9 -3 17 -7 17 -6 0 -8 288 -3 439 0 2 3 1 7 -2
3 -4 7 -87 9 -184z m-1934 67 c36 -38 48 -58 48 -81 0 -27 -3 -30 -22 -23 -37
11 -84 56 -106 100 -11 23 -18 45 -15 48 17 17 52 1 95 -44z m-3412 -450 l-5
-185 -225 0 -225 0 -3 24 c-5 30 6 101 17 119 4 7 33 17 64 22 58 9 177 57
177 70 0 4 12 11 27 15 15 3 52 28 82 54 47 40 96 75 96 68 0 -1 -2 -85 -5
-187z m-1051 120 c20 -15 53 -36 74 -46 20 -10 37 -21 37 -25 0 -3 12 -9 28
-12 61 -14 88 -41 105 -108 22 -87 260 -1510 274 -1636 l6 -53 -235 0 c-176 0
-238 3 -246 13 -5 6 -26 110 -46 231 -20 120 -41 225 -47 232 -17 21 -312 20
-328 0 -12 -14 -18 -44 -42 -216 -21 -156 -39 -235 -56 -247 -25 -19 -386 -18
-402 0 -8 10 0 80 29 268 36 225 61 394 130 859 10 69 28 190 40 270 24 161
43 246 67 303 l16 37 78 0 c113 0 193 32 349 139 50 35 58 37 94 29 21 -5 55
-22 75 -38z m1773 23 c19 -47 16 -306 -6 -383 -25 -93 -71 -182 -128 -246 -27
-31 -47 -61 -45 -67 2 -7 26 -28 54 -47 81 -57 114 -106 146 -220 66 -235 39
-542 -62 -698 -56 -87 -131 -153 -231 -202 -36 -18 -72 -36 -81 -40 -43 -22
-147 -32 -286 -28 l-148 4 -86 42 c-178 88 -268 233 -299 482 -12 102 -13 227
-2 234 5 3 105 8 223 12 177 6 216 5 225 -7 7 -8 14 -68 16 -139 5 -141 22
-190 72 -215 86 -43 164 3 186 110 17 84 9 388 -12 435 -36 82 -79 105 -220
116 -52 4 -89 11 -91 18 -10 26 -8 276 3 296 9 17 21 20 84 20 172 0 209 44
231 273 9 93 14 97 143 97 90 0 112 3 137 20 17 11 37 20 46 20 10 0 35 30 60
70 24 38 47 70 52 70 4 0 13 -12 19 -27z"/>
<path d="M9191 5419 c-51 -16 -80 -38 -101 -79 -54 -105 -51 -369 5 -487 31
-64 134 -123 216 -123 50 0 51 5 47 344 -3 279 -5 317 -20 332 -20 20 -100 27
-147 13z"/>
<path d="M3130 3364 c-109 -19 -178 -67 -219 -153 -23 -49 -26 -69 -25 -151 0
-76 5 -105 24 -148 24 -55 99 -132 129 -132 10 0 23 -6 30 -12 8 -9 45 -13
114 -12 155 0 222 38 285 159 22 43 26 63 26 145 1 84 -2 102 -27 152 -30 60
-77 105 -139 131 -39 16 -154 28 -198 21z"/>
<path d="M1740 3256 c0 -67 3 -85 16 -90 28 -11 317 -5 364 7 54 14 76 49 65
104 -10 55 -41 63 -260 63 l-185 0 0 -84z"/>
<path d="M1753 2974 c-9 -4 -13 -34 -13 -100 l0 -94 208 0 c231 0 241 3 262
64 14 42 -6 98 -42 117 -24 13 -390 25 -415 13z"/>
<path d="M6260 5411 l-25 -7 0 -369 0 -370 87 0 c72 0 92 4 115 21 68 51 88
149 80 389 -7 184 -22 254 -64 297 -42 41 -125 58 -193 39z"/>
<path d="M5296 2430 c-3 -8 -23 -163 -46 -345 -22 -181 -45 -369 -51 -417 -6
-48 -8 -92 -4 -98 4 -6 51 -10 116 -10 l109 0 0 43 c0 69 -98 805 -110 827 -8
13 -9 13 -14 0z"/>
<path d="M2516 2438 c-5 -30 -27 -206 -86 -681 -17 -137 -20 -181 -11 -190 13
-13 214 -17 227 -5 8 8 -19 236 -102 858 -8 57 -19 65 -28 18z"/>
</g>
</svg>
